<svg width="42" height="42" viewBox="0 0 42 42" fill="none" xmlns="http://www.w3.org/2000/svg">
<g id="Frame">
<path id="Vector" d="M11.6681 13.3645C11.4811 15.3595 11.3498 18.8902 12.5278 20.393C12.5278 20.393 11.9733 16.5145 16.9444 11.6484C18.9459 9.68953 19.4086 7.02515 18.7097 5.02687C18.3127 3.89484 17.5875 2.95969 16.9575 2.30672C16.59 1.92281 16.8722 1.28953 17.407 1.3125C20.6423 1.45687 25.8858 2.35593 28.1137 7.94718C29.0916 10.4016 29.1637 12.938 28.6978 15.517C28.4025 17.1642 27.3525 20.8261 29.7478 21.2756C31.4573 21.5972 32.2842 20.2387 32.655 19.2609C32.8092 18.8541 33.3441 18.7523 33.6328 19.0772C36.5203 22.3617 36.7664 26.2303 36.1692 29.5608C35.0142 35.9986 28.4944 40.6842 22.0172 40.6842C13.9256 40.6842 7.48453 36.0544 5.81437 27.6741C5.14172 24.2911 5.48297 17.5973 10.7002 12.8723C11.0873 12.518 11.7206 12.833 11.6681 13.3645Z" fill="url(#paint0_radial_143_454)"/>
<path id="Vector_2" d="M24.9736 25.4034C21.9909 21.5644 23.3264 17.1839 24.0581 15.4383C24.1566 15.2086 23.8941 14.992 23.6874 15.1331C22.4044 16.0059 19.7761 18.06 18.5522 20.9508C16.8952 24.8587 17.0133 26.7717 17.9944 29.108C18.585 30.5156 17.8992 30.8142 17.5547 30.8667C17.22 30.9192 16.9116 30.6961 16.6655 30.4631C15.96 29.7905 15.4514 28.9144 15.2086 27.9694C15.1561 27.7659 14.8903 27.7101 14.7689 27.8775C13.8502 29.1473 13.3744 31.185 13.3514 32.6255C13.2792 37.0781 16.9575 40.6875 21.4069 40.6875C27.0145 40.6875 31.0997 34.4859 27.8775 29.3016C26.9424 27.7922 26.063 26.8045 24.9736 25.4034Z" fill="url(#paint1_radial_143_454)"/>
</g>
<defs>
<radialGradient id="paint0_radial_143_454" cx="0" cy="0" r="1" gradientUnits="userSpaceOnUse" gradientTransform="translate(20.4146 40.7863) rotate(-179.751) scale(23.1616 38.0035)">
<stop offset="0.3144" stop-color="#FF9800"/>
<stop offset="0.6616" stop-color="#FF6D00"/>
<stop offset="0.9715" stop-color="#F44336"/>
</radialGradient>
<radialGradient id="paint1_radial_143_454" cx="0" cy="0" r="1" gradientUnits="userSpaceOnUse" gradientTransform="translate(21.7153 17.7381) rotate(90.5787) scale(24.2341 18.238)">
<stop offset="0.2141" stop-color="#FFF176"/>
<stop offset="0.3275" stop-color="#FFF27D"/>
<stop offset="0.4868" stop-color="#FFF48F"/>
<stop offset="0.6722" stop-color="#FFF7AD"/>
<stop offset="0.7931" stop-color="#FFF9C4"/>
<stop offset="0.8221" stop-color="#FFF8BD" stop-opacity="0.804"/>
<stop offset="0.8627" stop-color="#FFF6AB" stop-opacity="0.529"/>
<stop offset="0.9101" stop-color="#FFF38D" stop-opacity="0.2088"/>
<stop offset="0.9409" stop-color="#FFF176" stop-opacity="0"/>
</radialGradient>
</defs>
</svg>
